<?xml version="1.0" standalone="no"?>
<!DOCTYPE svg PUBLIC "-//W3C//DTD SVG 20010904//EN"
 "http://www.w3.org/TR/2001/REC-SVG-20010904/DTD/svg10.dtd">
<svg version="1.0" xmlns="http://www.w3.org/2000/svg"
 width="244.000000pt" height="210.000000pt" viewBox="0 0 244.000000 210.000000"
 preserveAspectRatio="xMidYMid meet">

<g transform="translate(0.000000,210.000000) scale(0.100000,-0.100000)"
fill="#000000" stroke="none">
<path d="M1114 1816 c-235 -54 -404 -263 -404 -500 0 -113 34 -222 93 -300 13
-18 -1 -46 -169 -338 -101 -176 -184 -322 -184 -325 0 -2 120 -3 268 -1 316 4
309 1 434 132 l78 81 103 -108 102 -108 288 1 c158 0 287 2 287 4 0 2 -82 147
-183 322 l-183 318 33 55 c100 166 98 378 -5 537 -119 183 -349 278 -558 230z
m239 -192 c65 -21 149 -100 184 -172 22 -48 27 -70 27 -137 0 -44 -6 -93 -12
-109 l-13 -29 -60 104 c-74 126 -79 132 -142 164 -69 34 -145 34 -214 0 -64
-32 -70 -39 -142 -165 l-60 -103 -13 29 c-21 50 -15 182 10 239 41 90 138 169
239 195 47 11 133 4 196 -16z m-95 -341 c11 -10 51 -71 87 -135 l67 -117 -20
-28 c-11 -15 -52 -59 -91 -98 l-71 -69 -71 69 c-39 39 -80 83 -91 98 l-20 28
67 117 c62 108 95 152 115 152 4 0 17 -8 28 -17z m-163 -585 c0 -4 -33 -44
-73 -88 l-73 -80 -90 0 c-50 0 -89 4 -89 10 0 8 97 181 162 288 l20 33 72 -77
c39 -43 71 -81 71 -86z m509 -1 c48 -82 86 -153 86 -158 0 -5 -40 -9 -88 -9
l-88 0 -50 53 c-27 28 -62 66 -78 84 l-29 32 74 80 c40 44 77 77 81 73 4 -4
45 -74 92 -155z"/>
</g>
</svg>
